<svg width="64" height="64" viewBox="0 0 64 64" xmlns="http://www.w3.org/2000/svg">
  <rect width="64" height="64" rx="14" fill="#0f0520"/>
  <path d="M32 8 L52 17 L52 37 C52 51 42 59 32 62 C22 59 12 51 12 37 L12 17 Z" fill="#880e4f"/>
  <path d="M32 11 L49 19 L49 37 C49 50 40 57 32 60 C24 57 15 50 15 37 L15 19 Z" fill="#e91e8c"/>
  <path d="M32 14 L46 21 L46 37 C46 48 38 54 32 57 C26 54 18 48 18 37 L18 21 Z" fill="#f06292"/>
  <path d="M22 26 L22 31 L32 27.5 L42 31 L42 26 L37.5 29 L32 25 L26.5 29 Z" fill="#ffd54f"/>
  <circle cx="22" cy="25.5" r="3" fill="#ffc107"/>
  <circle cx="32" cy="23" r="3.5" fill="#fff9c4"/>
  <circle cx="42" cy="25.5" r="3" fill="#ffc107"/>
  <path d="M32 49 C32 49 23 43 23 38 C23 35 26 33 29 34 C30.5 34.5 32 36 32 36 C32 36 33.5 34.5 35 34 C38 33 41 35 41 38 C41 43 32 49 32 49Z" fill="white" opacity="0.9"/>
</svg>
